# xmcd
#
# Track frame offsets:
#	150
#	21903
#	38438
#	55982
#	75813
#	91736
#	123156
#	150504
#	169265
#	187854
#	201437
#	227574
#	247719
#
# Disc length: 3358 seconds
#
# Revision: 1
# Processed by: cddbd v1.5.2PL0 Copyright (c) Steve Scherf et al.
# Submitted via: audiograbber 1.83.01
#
DISCID=880d1c0d
DTITLE=Stefano Ronchi - In Close Embrace
DYEAR=2017
DGENRE=Blues
TTITLE0=Have Mercy
TTITLE1=Before I Say Goodbye
TTITLE2=Down To The River
TTITLE3=Darkness On The Delta
TTITLE4=Everything I Know About The Blues
TTITLE5=St. James Infirmary
TTITLE6=My Last Request
TTITLE7=Down In New Orleans
TTITLE8=10 Minutes Blues
TTITLE9=Joshua Fit The Battle Of Jericho
TTITLE10=Nothing Else Matters
TTITLE11=At The End
TTITLE12=The Glorious Days Ahead
EXTD=
EXTT0=
EXTT1=
EXTT2=
EXTT3=
EXTT4=
EXTT5=
EXTT6=
EXTT7=
EXTT8=
EXTT9=
EXTT10=
EXTT11=
EXTT12=
PLAYORDER=
